<svg xmlns="http://www.w3.org/2000/svg" viewBox="0 0 900 320">
<defs><linearGradient id="a" x1="0" x2="1"><stop stop-color="#eaf6f8"/><stop offset="1" stop-color="#cbe0e4"/></linearGradient></defs>
<rect width="900" height="320" fill="url(#a)"/><path d="M0 250c110-80 165-95 275-55 95 34 165 5 245-58 122-96 241-74 380 20v163H0z" fill="#fff" opacity=".68"/><path d="M615 78l42 52-60 35 84 18-33 67 86-54 52 72-20-100 78-42-91-8-24-82-31 83z" fill="#0a6f6a" opacity=".18"/><circle cx="705" cy="170" r="92" fill="#0a6f6a" opacity=".12"/><path d="M620 214c22-64 62-122 122-151 31-15 70 3 83 36 18 48-20 113-83 149-55 31-103 23-122-34z" fill="#184d59" opacity=".25"/></svg>
