<?xml version="1.0" encoding="UTF-8"?>
<svg xmlns="http://www.w3.org/2000/svg"><symbol id="game-controller-fill" viewBox="0 0 256 256"><path fill="currentColor" d="M247.44 173.75a.7.7 0 0 0 0-.14l-16.39-84.17v-.18A60.08 60.08 0 0 0 172 40H83.89a59.88 59.88 0 0 0-59 49.52L8.58 173.61a.7.7 0 0 0 0 .14a36 36 0 0 0 60.9 31.71l.35-.37L109.52 160h37l39.71 45.09c.11.13.23.25.35.37A36.08 36.08 0 0 0 212 216a36 36 0 0 0 35.43-42.25ZM104 112h-8v8a8 8 0 0 1-16 0v-8h-8a8 8 0 0 1 0-16h8v-8a8 8 0 0 1 16 0v8h8a8 8 0 0 1 0 16m40-8a8 8 0 0 1 8-8h24a8 8 0 0 1 0 16h-24a8 8 0 0 1-8-8m84.37 87.47a19.84 19.84 0 0 1-12.9 8.23a20.09 20.09 0 0 1-17.47-5.39L167.8 160h4.2a60 60 0 0 0 51-28.38l8.74 45a19.82 19.82 0 0 1-3.37 14.85"/></symbol><symbol id="sword-fill" viewBox="0 0 256 256"><path fill="currentColor" d="M216 32h-64a8 8 0 0 0-6.34 3.12l-64 83.21l-9.66-9.64a16 16 0 0 0-22.64 0l-8.69 8.7a16 16 0 0 0 0 22.63l22 22l-32 32a16 16 0 0 0 0 22.63l8.69 8.68a16 16 0 0 0 22.62 0l32-32l22 22a16 16 0 0 0 22.64 0l8.69-8.7a16 16 0 0 0 0-22.63l-9.64-9.64l83.21-64A8 8 0 0 0 224 104V40a8 8 0 0 0-8-8m-8 68.06l-81.74 62.88L115.32 152l50.34-50.34a8 8 0 0 0-11.32-11.31L104 140.68l-10.93-10.94L155.94 48H208Z"/></symbol><symbol id="shield-fill" viewBox="0 0 256 256"><path fill="currentColor" d="M224 56v56c0 52.72-25.52 84.67-46.93 102.19c-23.06 18.86-46 25.27-47 25.53a8 8 0 0 1-4.2 0c-1-.26-23.91-6.67-47-25.53C57.52 196.67 32 164.72 32 112V56a16 16 0 0 1 16-16h160a16 16 0 0 1 16 16"/></symbol><symbol id="crown-fill" viewBox="0 0 256 256"><path fill="currentColor" d="M248 80a28 28 0 1 0-51.12 15.77l-26.79 33L146 73.4a28 28 0 1 0-36.06 0l-24.03 55.34l-26.79-33a28 28 0 1 0-26.6 12L47 194.63A16 16 0 0 0 62.78 208h130.44A16 16 0 0 0 209 194.63l14.47-86.85A28 28 0 0 0 248 80M128 40a12 12 0 1 1-12 12a12 12 0 0 1 12-12M24 80a12 12 0 1 1 12 12a12 12 0 0 1-12-12m196 12a12 12 0 1 1 12-12a12 12 0 0 1-12 12"/></symbol><symbol id="trophy-fill" viewBox="0 0 256 256"><path fill="currentColor" d="M232 64h-24V48a8 8 0 0 0-8-8H56a8 8 0 0 0-8 8v16H24A16 16 0 0 0 8 80v16a40 40 0 0 0 40 40h3.65A80.13 80.13 0 0 0 120 191.61V216H96a8 8 0 0 0 0 16h64a8 8 0 0 0 0-16h-24v-24.42c31.94-3.23 58.44-25.64 68.08-55.58H208a40 40 0 0 0 40-40V80a16 16 0 0 0-16-16M48 120a24 24 0 0 1-24-24V80h24v32q0 4 .39 8Zm184-24a24 24 0 0 1-24 24h-.5a82 82 0 0 0 .5-8.9V80h24Z"/></symbol><symbol id="coin-fill" viewBox="0 0 256 256"><path fill="currentColor" d="M207.58 63.84C186.85 53.48 159.33 48 128 48s-58.85 5.48-79.58 15.84S16 88.78 16 104v48c0 15.22 11.82 29.85 32.42 40.16S96.67 208 128 208s58.85-5.48 79.58-15.84S240 167.22 240 152v-48c0-15.22-11.82-29.85-32.42-40.16m-87.58 96v32c-19-.62-35-3.42-48-7.49v-31.3a203.4 203.4 0 0 0 48 6.81Zm16 0a203.4 203.4 0 0 0 48-6.81v31.31c-13 4.07-29 6.87-48 7.49ZM32 152v-18.47a83 83 0 0 0 16.42 10.63c2.43 1.21 5 2.35 7.58 3.43V178c-15.83-7.84-24-17.71-24-26m168 26v-30.41c2.61-1.08 5.15-2.22 7.58-3.43A83 83 0 0 0 224 133.53V152c0 8.29-8.17 18.16-24 26"/></symbol><symbol id="wallet-fill" viewBox="0 0 256 256"><path fill="currentColor" d="M216 64H56a8 8 0 0 1 0-16h136a8 8 0 0 0 0-16H56a24 24 0 0 0-24 24v128a24 24 0 0 0 24 24h160a16 16 0 0 0 16-16V80a16 16 0 0 0-16-16m-36 80a12 12 0 1 1 12-12a12 12 0 0 1-12 12"/></symbol><symbol id="credit-card-fill" viewBox="0 0 256 256"><path fill="currentColor" d="M224 48H32a16 16 0 0 0-16 16v128a16 16 0 0 0 16 16h192a16 16 0 0 0 16-16V64a16 16 0 0 0-16-16m-88 128h-16a8 8 0 0 1 0-16h16a8 8 0 0 1 0 16m64 0h-32a8 8 0 0 1 0-16h32a8 8 0 0 1 0 16M32 88V64h192v24Z"/></symbol><symbol id="storefront-fill" viewBox="0 0 256 256"><path fill="currentColor" d="M231.69 93.81L217.35 43.6A16.07 16.07 0 0 0 202 32H54a16.07 16.07 0 0 0-15.35 11.6L24.31 93.81A8 8 0 0 0 24 96v16a40 40 0 0 0 16 32v72a8 8 0 0 0 8 8h160a8 8 0 0 0 8-8v-72a40 40 0 0 0 16-32V96a8 8 0 0 0-.31-2.19M88 112a24 24 0 0 1-35.12 21.26a8 8 0 0 0-1.82-1.06A24 24 0 0 1 40 112v-8h48Zm64 0a24 24 0 0 1-48 0v-8h48Zm64 0a24 24 0 0 1-11.07 20.2a8 8 0 0 0-1.8 1.05A24 24 0 0 1 168 112v-8h48Z"/></symbol><symbol id="package-fill" viewBox="0 0 256 256"><path fill="currentColor" d="m223.68 66.15l-88-48.15a15.88 15.88 0 0 0-15.36 0l-88 48.17a16 16 0 0 0-8.32 14v95.64a16 16 0 0 0 8.32 14l88 48.17a15.88 15.88 0 0 0 15.36 0l88-48.17a16 16 0 0 0 8.32-14V80.18a16 16 0 0 0-8.32-14.03M128 32l80.35 44l-29.78 16.29l-80.35-44Zm0 88L47.65 76l33.91-18.57l80.35 44Zm88 55.85l-80 43.79v-85.81l32-17.51V152a8 8 0 0 0 16 0v-44.44l32-17.51v85.76Z"/></symbol><symbol id="gift-fill" viewBox="0 0 256 256"><path fill="currentColor" d="M216 72h-35.08c.39-.33.79-.65 1.17-1A29.53 29.53 0 0 0 192 49.57A32.62 32.62 0 0 0 158.44 16A29.53 29.53 0 0 0 137 25.91a55 55 0 0 0-9 14.48a55 55 0 0 0-9-14.48A29.53 29.53 0 0 0 97.56 16A32.62 32.62 0 0 0 64 49.57A29.53 29.53 0 0 0 73.91 71c.38.33.78.65 1.17 1H40a16 16 0 0 0-16 16v32a16 16 0 0 0 16 16v64a16 16 0 0 0 16 16h60a4 4 0 0 0 4-4v-92H40V88h80v32h16V88h80v32h-80v92a4 4 0 0 0 4 4h60a16 16 0 0 0 16-16v-64a16 16 0 0 0 16-16V88a16 16 0 0 0-16-16M84.51 59a13.7 13.7 0 0 1-4.5-10a16.62 16.62 0 0 1 16.58-17h.49a13.7 13.7 0 0 1 10 4.5c8.39 9.48 11.35 25.2 12.39 34.92C109.71 70.39 94 67.43 84.51 59m87 0c-9.49 8.4-25.24 11.36-35 12.4C137.7 60.89 141 45.5 149 36.51a13.7 13.7 0 0 1 10-4.5h.49A16.62 16.62 0 0 1 176 49.08a13.7 13.7 0 0 1-4.51 9.92Z"/></symbol><symbol id="ticket-fill" viewBox="0 0 256 256"><path fill="currentColor" d="M232 104a8 8 0 0 0 8-8V64a16 16 0 0 0-16-16H32a16 16 0 0 0-16 16v32a8 8 0 0 0 8 8a24 24 0 0 1 0 48a8 8 0 0 0-8 8v32a16 16 0 0 0 16 16h192a16 16 0 0 0 16-16v-32a8 8 0 0 0-8-8a24 24 0 0 1 0-48M32 167.2a40 40 0 0 0 0-78.4V64h56v128H32Z"/></symbol><symbol id="headset-fill" viewBox="0 0 256 256"><path fill="currentColor" d="M232 128v80a40 40 0 0 1-40 40h-56a8 8 0 0 1 0-16h56a24 24 0 0 0 24-24h-24a24 24 0 0 1-24-24v-40a24 24 0 0 1 24-24h23.65A88 88 0 0 0 66 65.54A87.3 87.3 0 0 0 40.36 120H64a24 24 0 0 1 24 24v40a24 24 0 0 1-24 24H48a24 24 0 0 1-24-24v-56a104.11 104.11 0 0 1 177.89-73.34A103.4 103.4 0 0 1 232 128"/></symbol><symbol id="chat-circle-fill" viewBox="0 0 256 256"><path fill="currentColor" d="M232 128a104 104 0 0 1-152.88 91.82l-34.05 11.35a16 16 0 0 1-20.24-20.24l11.35-34.05A104 104 0 1 1 232 128"/></symbol><symbol id="bell-fill" viewBox="0 0 256 256"><path fill="currentColor" d="M221.8 175.94c-5.55-9.56-13.8-36.61-13.8-71.94a80 80 0 1 0-160 0c0 35.34-8.26 62.38-13.81 71.94A16 16 0 0 0 48 200h40.81a40 40 0 0 0 78.38 0H208a16 16 0 0 0 13.8-24.06M128 216a24 24 0 0 1-22.62-16h45.24A24 24 0 0 1 128 216"/></symbol><symbol id="rocket-fill" viewBox="0 0 256 256"><path fill="currentColor" d="M152 224a8 8 0 0 1-8 8h-32a8 8 0 0 1 0-16h32a8 8 0 0 1 8 8m71.62-68.17l-12.36 55.63a16 16 0 0 1-25.51 9.11L158.51 200h-61l-27.26 20.57a16 16 0 0 1-25.51-9.11l-12.36-55.63a16.09 16.09 0 0 1 3.32-13.71l28.56-34.26a123 123 0 0 1 8.57-36.67c12.9-32.34 36-52.63 45.37-59.85a16 16 0 0 1 19.6 0c9.34 7.22 32.47 27.51 45.37 59.85a123 123 0 0 1 8.57 36.67l28.56 34.26a16.09 16.09 0 0 1 3.32 13.71m-139.23 34q-16.11-29.33-19.56-57.67L48 152.36L60.36 208l.18-.13ZM140 100a12 12 0 1 0-12 12a12 12 0 0 0 12-12m68 52.36l-16.83-20.2q-3.42 28.28-19.56 57.69l23.85 18l.18.13Z"/></symbol><symbol id="lightning-fill" viewBox="0 0 256 256"><path fill="currentColor" d="m213.85 125.46l-112 120a8 8 0 0 1-13.69-7l14.66-73.33l-57.63-21.64a8 8 0 0 1-3-13l112-120a8 8 0 0 1 13.69 7l-14.7 73.41l57.63 21.61a8 8 0 0 1 3 12.95Z"/></symbol><symbol id="star-fill" viewBox="0 0 256 256"><path fill="currentColor" d="m234.29 114.85l-45 38.83L203 211.75a16.4 16.4 0 0 1-24.5 17.82L128 198.49l-50.53 31.08A16.4 16.4 0 0 1 53 211.75l13.76-58.07l-45-38.83A16.46 16.46 0 0 1 31.08 86l59-4.76l22.76-55.08a16.36 16.36 0 0 1 30.27 0l22.75 55.08l59 4.76a16.46 16.46 0 0 1 9.37 28.86Z"/></symbol><symbol id="heart-fill" viewBox="0 0 256 256"><path fill="currentColor" d="M240 102c0 70-103.79 126.66-108.21 129a8 8 0 0 1-7.58 0C119.79 228.66 16 172 16 102a62.07 62.07 0 0 1 62-62c20.65 0 38.73 8.88 50 23.89C139.27 48.88 157.35 40 178 40a62.07 62.07 0 0 1 62 62"/></symbol><symbol id="fire-fill" viewBox="0 0 256 256"><path fill="currentColor" d="M143.38 17.85a8 8 0 0 0-12.63 3.41l-22 60.41l-24.16-23.41a8 8 0 0 0-11.93.89C51 87.53 40 116.08 40 144a88 88 0 0 0 176 0c0-59.45-50.79-108-72.62-126.15m40.51 135.49a57.6 57.6 0 0 1-46.56 46.55a7.7 7.7 0 0 1-1.33.11a8 8 0 0 1-1.32-15.89c16.57-2.79 30.63-16.85 33.44-33.45a8 8 0 0 1 15.78 2.68Z"/></symbol><symbol id="medal-fill" viewBox="0 0 256 256"><path fill="currentColor" d="M216 96a88 88 0 1 0-144 67.83V240a8 8 0 0 0 11.58 7.16L128 225l44.43 22.21a8.1 8.1 0 0 0 3.57.79a8 8 0 0 0 8-8v-76.17A87.85 87.85 0 0 0 216 96M56 96a72 72 0 1 1 72 72a72.08 72.08 0 0 1-72-72m16 0a56 56 0 1 1 56 56a56.06 56.06 0 0 1-56-56"/></symbol><symbol id="cube-fill" viewBox="0 0 256 256"><path fill="currentColor" d="m223.68 66.15l-88-48.15a15.88 15.88 0 0 0-15.36 0l-88 48.17a16 16 0 0 0-8.32 14v95.64a16 16 0 0 0 8.32 14l88 48.17a15.88 15.88 0 0 0 15.36 0l88-48.17a16 16 0 0 0 8.32-14V80.18a16 16 0 0 0-8.32-14.03M128 120L47.65 76L128 32l80.35 44Zm8 99.64v-85.81l80-43.78v85.76Z"/></symbol><symbol id="gauge-fill" viewBox="0 0 256 256"><path fill="currentColor" d="M240 152v24a16 16 0 0 1-16 16H115.93a4 4 0 0 1-3.24-6.35L174.27 101a8.21 8.21 0 0 0-1.37-11.3a8 8 0 0 0-11.37 1.61l-72 99.06a4 4 0 0 1-3.28 1.63H32a16 16 0 0 1-16-16v-22.87c0-1.79 0-3.57.13-5.33a4 4 0 0 1 4-3.8H48a8 8 0 0 0 8-8.53a8.17 8.17 0 0 0-8.27-7.47H23.92a4 4 0 0 1-3.87-5c12-43.84 49.66-77.13 95.52-82.28a4 4 0 0 1 4.43 4V72a8 8 0 0 0 8.53 8a8.17 8.17 0 0 0 7.47-8.27V44.67a4 4 0 0 1 4.43-4a112.18 112.18 0 0 1 95.8 82.33a4 4 0 0 1-3.88 5h-24.08a8.17 8.17 0 0 0-8.25 7.47a8 8 0 0 0 8 8.53h27.92a4 4 0 0 1 4 3.86c.06 1.37.06 2.75.06 4.14"/></symbol><symbol id="lock-key-fill" viewBox="0 0 256 256"><path fill="currentColor" d="M208 80h-32V56a48 48 0 0 0-96 0v24H48a16 16 0 0 0-16 16v112a16 16 0 0 0 16 16h160a16 16 0 0 0 16-16V96a16 16 0 0 0-16-16m-72 78.63V184a8 8 0 0 1-16 0v-25.37a24 24 0 1 1 16 0M160 80H96V56a32 32 0 0 1 64 0Z"/></symbol><symbol id="user-circle-fill" viewBox="0 0 256 256"><path fill="currentColor" d="M172 120a44 44 0 1 1-44-44a44.05 44.05 0 0 1 44 44m60 8A104 104 0 1 1 128 24a104.11 104.11 0 0 1 104 104m-16 0a88.09 88.09 0 0 0-91.47-87.93C77.43 41.89 39.87 81.12 40 128.25a87.65 87.65 0 0 0 22.24 58.16A79.7 79.7 0 0 1 84 165.1a4 4 0 0 1 4.83.32a59.83 59.83 0 0 0 78.28 0a4 4 0 0 1 4.83-.32a79.7 79.7 0 0 1 21.79 21.31A87.62 87.62 0 0 0 216 128"/></symbol><symbol id="shopping-cart-fill" viewBox="0 0 256 256"><path fill="currentColor" d="M230.14 58.87A8 8 0 0 0 224 56H62.68L56.6 22.57A8 8 0 0 0 48.73 16H24a8 8 0 0 0 0 16h18l25.56 140.29a24 24 0 0 0 5.33 11.27a28 28 0 1 0 44.4 8.44h45.42a27.75 27.75 0 0 0-2.71 12a28 28 0 1 0 28-28H91.17a8 8 0 0 1-7.87-6.57L80.13 152h116a24 24 0 0 0 23.61-19.71l12.16-66.86a8 8 0 0 0-1.76-6.56M104 204a12 12 0 1 1-12-12a12 12 0 0 1 12 12m96 0a12 12 0 1 1-12-12a12 12 0 0 1 12 12"/></symbol><symbol id="tag-fill" viewBox="0 0 256 256"><path fill="currentColor" d="M243.31 136L144 36.69A15.86 15.86 0 0 0 132.69 32H40a8 8 0 0 0-8 8v92.69A15.86 15.86 0 0 0 36.69 144L136 243.31a16 16 0 0 0 22.63 0l84.68-84.68a16 16 0 0 0 0-22.63M84 96a12 12 0 1 1 12-12a12 12 0 0 1-12 12"/></symbol><symbol id="percent-fill" viewBox="0 0 256 256"><path fill="currentColor" d="M176 172a12 12 0 1 1-12-12a12 12 0 0 1 12 12M92 96a12 12 0 1 0-12-12a12 12 0 0 0 12 12m132-48v160a16 16 0 0 1-16 16H48a16 16 0 0 1-16-16V48a16 16 0 0 1 16-16h160a16 16 0 0 1 16 16M64 84a28 28 0 1 0 28-28a28 28 0 0 0-28 28m128 88a28 28 0 1 0-28 28a28 28 0 0 0 28-28m-2.34-105.66a8 8 0 0 0-11.32 0l-112 112a8 8 0 0 0 11.32 11.32l112-112a8 8 0 0 0 0-11.32"/></symbol><symbol id="diamond-fill" viewBox="0 0 256 256"><path fill="currentColor" d="M240 128a15.85 15.85 0 0 1-4.67 11.28l-96.05 96.06a16 16 0 0 1-22.56 0l-96-96.06a16 16 0 0 1 0-22.56l96.05-96.06a16 16 0 0 1 22.56 0l96.05 96.06A15.85 15.85 0 0 1 240 128"/></symbol><symbol id="crown-simple-fill" viewBox="0 0 256 256"><path fill="currentColor" d="M239.75 90.81c0 .11 0 .21-.07.32L217 195a16 16 0 0 1-15.72 13H54.71A16 16 0 0 1 39 195L16.32 91.13c0-.11-.05-.21-.07-.32A16 16 0 0 1 44 77.39l33.67 36.29l35.8-80.29a1 1 0 0 0 0-.1a16 16 0 0 1 29.06 0a1 1 0 0 0 0 .1l35.8 80.29L212 77.39a16 16 0 0 1 27.71 13.42Z"/></symbol></svg>
