<svg xmlns="http://www.w3.org/2000/svg" width="1440" height="980" viewBox="0 0 1440 980" fill="none">
  <rect width="1440" height="980" fill="#F6FAFF"/>
  <g opacity="0.26" stroke="#6BCDD0" stroke-width="1">
    <path d="M0 120L90 20L180 120L90 220L0 120Z"/>
    <path d="M180 120L270 20L360 120L270 220L180 120Z"/>
    <path d="M0 320L90 220L180 320L90 420L0 320Z"/>
    <path d="M180 320L270 220L360 320L270 420L180 320Z"/>
    <path d="M1080 130L1170 30L1260 130L1170 230L1080 130Z"/>
    <path d="M1260 130L1350 30L1440 130L1350 230L1260 130Z"/>
    <path d="M1130 780L1220 680L1310 780L1220 880L1130 780Z"/>
  </g>
  <g opacity="0.22" fill="#04979B">
    <circle cx="104" cy="92" r="2"/><circle cx="124" cy="92" r="2"/><circle cx="144" cy="92" r="2"/><circle cx="164" cy="92" r="2"/><circle cx="184" cy="92" r="2"/><circle cx="204" cy="92" r="2"/>
    <circle cx="104" cy="112" r="2"/><circle cx="124" cy="112" r="2"/><circle cx="144" cy="112" r="2"/><circle cx="164" cy="112" r="2"/><circle cx="184" cy="112" r="2"/><circle cx="204" cy="112" r="2"/>
    <circle cx="104" cy="132" r="2"/><circle cx="124" cy="132" r="2"/><circle cx="144" cy="132" r="2"/><circle cx="164" cy="132" r="2"/><circle cx="184" cy="132" r="2"/><circle cx="204" cy="132" r="2"/>
    <circle cx="104" cy="152" r="2"/><circle cx="124" cy="152" r="2"/><circle cx="144" cy="152" r="2"/><circle cx="164" cy="152" r="2"/><circle cx="184" cy="152" r="2"/><circle cx="204" cy="152" r="2"/>
    <circle cx="104" cy="172" r="2"/><circle cx="124" cy="172" r="2"/><circle cx="144" cy="172" r="2"/><circle cx="164" cy="172" r="2"/><circle cx="184" cy="172" r="2"/><circle cx="204" cy="172" r="2"/>
  </g>
  <g opacity="0.22" stroke="#00A5A8" stroke-width="2">
    <path d="M95 610C210 560 280 650 390 600C510 545 570 625 690 565"/>
    <path d="M96 650C220 600 290 690 410 635C520 584 590 664 706 608"/>
    <path d="M768 284C902 224 1000 310 1128 250C1220 207 1304 238 1400 190"/>
  </g>
  <g filter="url(#blur)">
    <circle cx="340" cy="215" r="70" fill="#FFFFFF" opacity="0.75"/>
    <circle cx="1250" cy="338" r="90" fill="#FFFFFF" opacity="0.7"/>
    <circle cx="620" cy="84" r="56" fill="#FFFFFF" opacity="0.65"/>
  </g>
  <defs>
    <filter id="blur" x="0" y="0" width="1440" height="980" filterUnits="userSpaceOnUse" color-interpolation-filters="sRGB">
      <feGaussianBlur stdDeviation="28"/>
    </filter>
  </defs>
</svg>
